# xmcd
#
# Track frame offsets:
#	151
#	21715
#	33001
#	47440
#	58887
#	71978
#	84239
#	95317
#	108919
#	123390
#
# Disc length: 1779
#
# Revision: 2
# Processed by: cddbd v1.5.1PL0 Copyright (c) Steve Scherf et al.
# Submitted via: EasyCDDAExtractor 7.0.6.1
# Normalized: r1:DSETVAR1
#
DISCID=8006f10a
DTITLE=Various Artist - Cuba Social Club - Omara Portuondo
DYEAR=1900
DGENRE=Blues
TTITLE0=Omara Portuondo - Lagrimas negras
TTITLE1=Orquesta Casino de la Playa - Echa pa'lla chico
TTITLE2=Ñico Saquito - Alborada
TTITLE3=Celia Cruz - Angelitos negros
TTITLE4=Bienvenido Granda - Boletera
TTITLE5=Compay Segundo - Anita
TTITLE6=Omara Portuondo - En el tronco de un arbol
TTITLE7=Chico O'farril - La bella cubana
TTITLE8=Antonio Ma. Romeu - La flauta magica
TTITLE9=Bola de Nieve - Ay mamá Ines
EXTD=
EXTT0=
EXTT1=
EXTT2=
EXTT3=
EXTT4=
EXTT5=
EXTT6=
EXTT7=
EXTT8=
EXTT9=
PLAYORDER=
